<?xml version="1.0" standalone="no"?>
<!DOCTYPE svg PUBLIC "-//W3C//DTD SVG 20010904//EN"
 "http://www.w3.org/TR/2001/REC-SVG-20010904/DTD/svg10.dtd">
<svg version="1.0" xmlns="http://www.w3.org/2000/svg"
 width="16.000000pt" height="16.000000pt" viewBox="0 0 16.000000 16.000000"
 preserveAspectRatio="xMidYMid meet">
<metadata>
Created by potrace 1.11, written by Peter Selinger 2001-2013
</metadata>
<g transform="translate(0.000000,16.000000) scale(0.003125,-0.003125)"
fill="#000000" stroke="none">
<path d="M2542 4913 c-51 -74 -582 -1022 -582 -1039 0 -12 8 -28 18 -37 16
-15 46 -17 210 -17 124 0 192 -4 192 -10 0 -6 -22 -55 -50 -110 -37 -74 -56
-101 -72 -105 -140 -30 -218 -50 -298 -76 -124 -40 -369 -160 -494 -243 -55
-36 -101 -64 -103 -62 -2 1 -15 47 -28 100 -123 473 -420 915 -766 1138 -133
86 -334 166 -455 183 -80 10 -91 -4 -105 -145 -39 -397 66 -867 279 -1240 142
-249 343 -474 541 -606 2 -2 -7 -18 -20 -36 -13 -18 -45 -73 -72 -123 -246
-460 -271 -910 -73 -1303 114 -226 299 -434 528 -595 371 -260 864 -407 1368
-407 841 0 1591 396 1896 1002 147 292 172 616 73 950 -48 160 -146 376 -218
476 -13 18 -22 34 -20 36 198 132 399 357 541 606 213 373 318 843 279 1240
-14 141 -25 155 -105 145 -121 -17 -322 -97 -455 -183 -346 -223 -643 -665
-766 -1138 -13 -53 -26 -99 -28 -100 -2 -2 -48 26 -103 61 -173 114 -383 213
-568 268 l-79 23 239 213 c131 117 251 226 267 242 30 33 34 56 13 85 -13 17
-31 19 -226 24 l-211 5 291 349 c160 192 295 357 301 367 14 27 11 54 -9 72
-17 15 -71 17 -565 17 l-546 0 -19 -27z m941 -115 c-11 -13 -147 -175 -302
-360 -229 -275 -281 -343 -281 -367 0 -55 22 -61 228 -61 112 0 181 -4 177 -9
-3 -6 -104 -98 -225 -206 l-220 -196 -95 10 c-52 6 -148 11 -214 11 l-120 0
54 113 c69 146 69 149 46 178 -19 23 -24 24 -210 29 l-190 5 247 437 247 437
439 1 439 0 -20 -22z m-2650 -748 c201 -249 345 -563 412 -895 15 -71 31 -135
37 -142 18 -22 75 -16 92 9 9 12 16 30 16 38 0 27 129 117 299 210 316 172
675 252 1006 222 194 -18 347 -54 532 -125 189 -73 503 -265 503 -307 0 -8 7
-26 16 -38 17 -25 74 -31 92 -9 6 7 22 69 36 138 68 341 197 624 407 889 113
143 106 144 111 -12 6 -154 23 -217 76 -278 56 -66 96 -81 251 -92 75 -6 141
-12 148 -14 15 -4 -11 -75 -87 -230 -147 -302 -366 -554 -605 -697 -49 -30
-96 -65 -104 -79 -30 -53 38 -100 99 -68 16 8 24 2 55 -48 95 -152 180 -360
216 -535 28 -133 30 -345 5 -464 -52 -247 -161 -439 -365 -644 -144 -143 -261
-229 -442 -323 -238 -123 -463 -192 -779 -237 -110 -16 -490 -16 -600 0 -402
58 -719 174 -999 368 -186 129 -394 360 -485 540 -143 284 -160 622 -45 950
35 101 112 261 164 345 31 50 39 56 55 48 58 -31 126 12 102 65 -6 13 -21 30
-34 38 -140 86 -189 120 -259 181 -162 139 -312 339 -419 560 -76 155 -102
226 -87 230 7 2 73 8 148 14 155 11 195 26 251 92 53 61 70 124 76 278 5 155
-1 153 105 22z"/>
<path d="M1462 2671 c-111 -41 -194 -126 -234 -239 -29 -83 -22 -207 16 -286
36 -73 109 -146 182 -182 73 -36 193 -45 275 -20 114 34 220 140 254 253 55
185 -30 373 -205 457 -85 40 -205 47 -288 17z m18 -211 c42 -42 11 -113 -50
-113 -58 0 -89 62 -54 111 20 29 76 30 104 2z"/>
<path d="M3402 2670 c-150 -54 -252 -198 -252 -356 0 -129 59 -245 161 -316
68 -47 134 -68 219 -68 87 0 154 21 221 69 192 137 215 414 48 580 -101 102
-264 139 -397 91z m22 -212 c35 -49 4 -111 -54 -111 -58 0 -89 62 -54 111 21
31 87 31 108 0z"/>
<path d="M2363 2066 c-24 -21 -26 -27 -18 -52 8 -22 28 -39 83 -67 70 -37 72
-39 72 -75 0 -48 -28 -103 -60 -119 -31 -16 -97 -17 -138 -2 -35 12 -56 40
-67 87 -9 42 -30 62 -65 62 -61 0 -75 -73 -30 -160 43 -84 112 -120 227 -120
76 0 123 14 176 52 14 10 20 10 35 0 52 -38 99 -52 175 -52 115 0 184 36 227
120 42 84 30 160 -26 160 -41 0 -63 -18 -70 -58 -10 -51 -30 -79 -66 -91 -41
-15 -107 -14 -138 2 -32 16 -60 71 -60 119 0 36 2 38 72 75 55 28 75 45 83 67
8 25 6 31 -18 52 -27 23 -33 24 -197 24 -164 0 -170 -1 -197 -24z"/>
<path d="M1225 1867 c-139 -54 -212 -191 -180 -337 17 -79 91 -159 175 -191
136 -52 288 11 351 146 88 184 -48 396 -251 394 -36 0 -79 -6 -95 -12z"/>
<path d="M3685 1857 c-99 -47 -165 -154 -165 -266 0 -59 46 -157 90 -194 87
-73 194 -95 290 -58 191 73 244 317 100 461 -53 53 -104 74 -190 78 -63 2 -83
-1 -125 -21z"/>
</g>
</svg>
